<?xml version="1.0" encoding="UTF-8" standalone="no"?>
<!-- Created with Inkscape (http://www.inkscape.org/) -->

<svg
   xmlns:dc="http://purl.org/dc/elements/1.1/"
   xmlns:cc="http://creativecommons.org/ns#"
   xmlns:rdf="http://www.w3.org/1999/02/22-rdf-syntax-ns#"
   xmlns:svg="http://www.w3.org/2000/svg"
   xmlns="http://www.w3.org/2000/svg"
   xmlns:sodipodi="http://sodipodi.sourceforge.net/DTD/sodipodi-0.dtd"
   xmlns:inkscape="http://www.inkscape.org/namespaces/inkscape"
   width="45mm"
   height="45mm"
   viewBox="0 0 45 45.000002"
   version="1.1"
   id="svg8"
   sodipodi:docname="toxicmobile.svg"
   inkscape:version="0.92.2 2405546, 2018-03-11"
   inkscape:export-filename="/home/stuart/Desktop/toxicmobile.png"
   inkscape:export-xdpi="1155.98"
   inkscape:export-ydpi="1155.98">
  <defs
     id="defs2" />
  <sodipodi:namedview
     id="base"
     pagecolor="#ffffff"
     bordercolor="#666666"
     borderopacity="1.0"
     inkscape:pageopacity="1"
     inkscape:pageshadow="2"
     inkscape:zoom="2.8"
     inkscape:cx="-2.0112123"
     inkscape:cy="33.977674"
     inkscape:document-units="mm"
     inkscape:current-layer="layer3"
     showgrid="false"
     inkscape:window-width="1920"
     inkscape:window-height="1043"
     inkscape:window-x="0"
     inkscape:window-y="0"
     inkscape:window-maximized="1"
     fit-margin-top="0"
     fit-margin-left="0"
     fit-margin-right="0"
     fit-margin-bottom="0"
     inkscape:pagecheckerboard="true"
     scale-x="1" />
  <metadata
     id="metadata5">
    <rdf:RDF>
      <cc:Work
         rdf:about="">
        <dc:format>image/svg+xml</dc:format>
        <dc:type
           rdf:resource="http://purl.org/dc/dcmitype/StillImage" />
        <dc:title></dc:title>
      </cc:Work>
    </rdf:RDF>
  </metadata>
  <g
     inkscape:groupmode="layer"
     id="layer3"
     inkscape:label="Layer 3"
     style="display:inline"
     transform="translate(-52.815897,-67.497009)">
    <g
       id="g102"
       transform="translate(13.274456,-11.29939)">
      <path
         id="path81"
         transform="matrix(0.26458333,0,0,0.26458333,52.815897,90.095791)"
         d="m 23.333984,0 0.46875,15.482422 0.46875,15.484375 -12.134765,22.119141 C 5.4618463,65.251481 0,76.134048 0,77.269531 0,78.404977 1.1993473,80.533392 2.6660156,82 c 2.5072895,2.507187 4.4447204,2.666016 32.4121094,2.666016 32.667851,0 34.735121,-0.444638 34.65625,-7.476563 -0.02608,-2.312995 -4.68438,-12.124811 -11.644531,-24.523437 L 46.488281,32 46.910156,16 47.333984,0 h -12 z m 3.019532,2.6660156 h 8.980468 8.978516 l -0.222656,16.2109374 -0.22461,16.208985 6.546875,11.791015 c 12.954131,23.33091 15.111081,28.278744 13.574219,31.150391 -1.337359,2.498986 -2.869106,2.638672 -28.652344,2.638672 -35.24248025,0 -33.989026,1.665257 -19.384765,-25.744141 l 10.791015,-20.255859 -0.193359,-16 z"
         style="fill:#000000;stroke-width:1.33333337"
         inkscape:connector-curvature="0" />
      <path
         id="path77"
         d="m 63.39923,91.683291 c -0.211804,0 -0.352949,1.418074 -0.352949,3.548621 0,2.275898 0.126693,3.470378 0.352949,3.330546 0.194879,-0.120441 0.352952,-1.708777 0.352949,-3.548621 3e-6,-1.985193 -0.142674,-3.330546 -0.352949,-3.330546 z"
         style="fill:#000000;stroke-width:0.35277778"
         inkscape:connector-curvature="0" />
      <path
         id="path75"
         transform="matrix(0.26458333,0,0,0.26458333,52.815897,90.095791)"
         d="m 42.826172,40.285156 c -1.087117,0.01134 -2.315527,0.773989 -4.236328,1.753906 -2.83234,1.444952 -7.202134,2.626954 -9.708985,2.626954 -4.402049,0 -4.813831,0.466789 -12.052734,13.626953 -8.0460093,14.627452 -8.7981588,17.481826 -5.162109,19.599609 3.445659,2.006929 46.041297,1.867057 48.066406,-0.158203 2.807561,-2.807546 1.774351,-6.462161 -5.923828,-20.927734 -6.88419,-12.936 -8.590752,-16.546845 -10.982422,-16.521485 z M 40,50 c 0.73333,0 1.333996,0.600643 1.333984,1.333984 1.2e-5,0.733342 -0.600654,1.332032 -1.333984,1.332032 -0.73333,0 -1.333984,-0.59869 -1.333984,-1.332032 C 38.666016,50.600643 39.26667,50 40,50 Z m -12.208984,4.382812 a 2.8325098,2.8325098 0 0 1 2.832031,2.832032 2.8325098,2.8325098 0 0 1 -0.441406,1.513672 4.7265453,4.7265453 0 0 1 2.21875,-0.556641 4.7265453,4.7265453 0 0 1 4.726562,4.726563 4.7265453,4.7265453 0 0 1 -4.726562,4.726562 4.7265453,4.7265453 0 0 1 -4.726563,-4.726562 4.7265453,4.7265453 0 0 1 1.097656,-3.027344 2.8325098,2.8325098 0 0 1 -0.980468,0.177734 2.8325098,2.8325098 0 0 1 -2.832032,-2.833984 2.8325098,2.8325098 0 0 1 2.832032,-2.832032 z"
         style="fill:#0b7250;fill-opacity:1;stroke-width:1.33333337"
         inkscape:connector-curvature="0" />
    </g>
  </g>
</svg>
